<svg id="Capa_1" enable-background="new 0 0 512 512" height="512" viewBox="0 0 512 512" width="512" xmlns="http://www.w3.org/2000/svg"><path d="m411.62 165.111c-8.342-27.393-24.797-52.042-47.151-70.326-25.86-21.153-58.533-32.802-91.999-32.802-30.058 0-58.908 9.097-83.432 26.308-20.881 14.654-37.352 34.23-48.111 57.06-36.388.571-66.198 28.732-69.387 64.438-40.576 7.005-71.54 42.456-71.54 85.002 0 47.563 38.695 86.258 86.258 86.258h115.633v68.967h108.219v-68.967h93.784c59.61 0 108.106-48.496 108.106-108.106 0-57.012-44.361-103.858-100.38-107.832zm-131.511 254.906h-48.219v-133.719h-34.533l58.643-79.925 58.643 79.925h-34.533v133.719zm123.785-68.968h-93.784v-34.751h63.754l-117.864-160.638-117.863 160.638h63.754v34.751h-115.633c-31.021 0-56.258-25.237-56.258-56.258 0-30.964 25.142-56.166 56.085-56.257.196.006 17.816.111 17.816.111s-2.644-20.771-2.644-22.507c0-22.495 18.302-40.796 40.797-40.796 2.094 0 18.216 2.305 18.216 2.305l4.313-11.32c16.939-44.467 60.296-74.344 107.887-74.344 54.07 0 101.528 38.312 112.843 91.097l2.65 12.365s14.86-.608 15.931-.608c43.068 0 78.106 35.038 78.106 78.106s-35.038 78.106-78.106 78.106z"/></svg>